<svg width="103" height="83" viewBox="0 0 103 83" fill="none" xmlns="http://www.w3.org/2000/svg">
<path d="M26.2192 0.630127C20.6008 0.630127 16.0329 5.24217 16.0329 10.9148V28.913H10.2554C9.37997 27.3703 7.7247 26.3419 5.8466 26.3419C3.02945 26.3419 0.753448 28.6398 0.753448 31.4842C0.753448 34.3286 3.02945 36.6265 5.8466 36.6265C7.7247 36.6265 9.37997 35.5981 10.2554 34.0554H16.0329V57.1959C16.0329 62.8686 20.6008 67.4806 26.2192 67.4806H36.4055V80.3365C36.4055 81.3167 36.9467 82.2006 37.8061 82.6345C38.6656 83.0683 39.7001 82.9719 40.48 82.3934L60.1682 67.4806H77.1507C82.7691 67.4806 87.337 62.8686 87.337 57.1959V34.0554H93.1145C93.9899 35.5981 95.6452 36.6265 97.5233 36.6265C100.34 36.6265 102.616 34.3286 102.616 31.4842C102.616 28.6398 100.34 26.3419 97.5233 26.3419C95.6452 26.3419 93.9899 27.3703 93.1145 28.913H87.337V10.9148C87.337 5.24217 82.7691 0.630127 77.1507 0.630127H26.2192ZM26.2192 21.1995C26.2192 18.3551 28.4952 16.0572 31.3124 16.0572H72.0576C74.8747 16.0572 77.1507 18.3551 77.1507 21.1995V41.7689C77.1507 44.6132 74.8747 46.9112 72.0576 46.9112H31.3124C28.4952 46.9112 26.2192 44.6132 26.2192 41.7689V21.1995ZM36.4055 36.6265C37.7563 36.6265 39.0518 36.0848 40.0069 35.1204C40.9621 34.156 41.4987 32.848 41.4987 31.4842C41.4987 30.1204 40.9621 28.8124 40.0069 27.848C39.0518 26.8836 37.7563 26.3419 36.4055 26.3419C35.0547 26.3419 33.7593 26.8836 32.8041 27.848C31.849 28.8124 31.3124 30.1204 31.3124 31.4842C31.3124 32.848 31.849 34.156 32.8041 35.1204C33.7593 36.0848 35.0547 36.6265 36.4055 36.6265ZM66.9644 36.6265C68.3152 36.6265 69.6107 36.0848 70.5658 35.1204C71.521 34.156 72.0576 32.848 72.0576 31.4842C72.0576 30.1204 71.521 28.8124 70.5658 27.848C69.6107 26.8836 68.3152 26.3419 66.9644 26.3419C65.6136 26.3419 64.3182 26.8836 63.363 27.848C62.4079 28.8124 61.8713 30.1204 61.8713 31.4842C61.8713 32.848 62.4079 34.156 63.363 35.1204C64.3182 36.0848 65.6136 36.6265 66.9644 36.6265Z" fill="#7879F1"/>
</svg>
