<svg width="198" height="160" viewBox="0 0 198 160" fill="none" xmlns="http://www.w3.org/2000/svg">
<path d="M49.8438 0.938965C38.9987 0.938965 30.1813 9.81741 30.1813 20.7376V55.3852H19.0289C17.3392 52.4154 14.144 50.4355 10.5188 50.4355C5.08084 50.4355 0.6875 54.8593 0.6875 60.3348C0.6875 65.8104 5.08084 70.2341 10.5188 70.2341C14.144 70.2341 17.3392 68.2543 19.0289 65.2845H30.1813V109.831C30.1813 120.752 38.9987 129.63 49.8438 129.63H69.5062V154.378C69.5062 156.265 70.5508 157.967 72.2098 158.802C73.8689 159.637 75.8658 159.452 77.3713 158.338L115.375 129.63H148.156C159.001 129.63 167.819 120.752 167.819 109.831V65.2845H178.971C180.661 68.2543 183.856 70.2341 187.481 70.2341C192.919 70.2341 197.312 65.8104 197.312 60.3348C197.312 54.8593 192.919 50.4355 187.481 50.4355C183.856 50.4355 180.661 52.4154 178.971 55.3852H167.819V20.7376C167.819 9.81741 159.001 0.938965 148.156 0.938965H49.8438ZM49.8438 40.5362C49.8438 35.0606 54.2371 30.6369 59.675 30.6369H138.325C143.763 30.6369 148.156 35.0606 148.156 40.5362V80.1334C148.156 85.609 143.763 90.0327 138.325 90.0327H59.675C54.2371 90.0327 49.8438 85.609 49.8438 80.1334V40.5362ZM69.5062 70.2341C72.1137 70.2341 74.6143 69.1912 76.458 67.3347C78.3017 65.4782 79.3375 62.9603 79.3375 60.3348C79.3375 57.7094 78.3017 55.1914 76.458 53.3349C74.6143 51.4785 72.1137 50.4355 69.5062 50.4355C66.8988 50.4355 64.3982 51.4785 62.5545 53.3349C60.7108 55.1914 59.675 57.7094 59.675 60.3348C59.675 62.9603 60.7108 65.4782 62.5545 67.3347C64.3982 69.1912 66.8988 70.2341 69.5062 70.2341ZM128.494 70.2341C131.101 70.2341 133.602 69.1912 135.445 67.3347C137.289 65.4782 138.325 62.9603 138.325 60.3348C138.325 57.7094 137.289 55.1914 135.445 53.3349C133.602 51.4785 131.101 50.4355 128.494 50.4355C125.886 50.4355 123.386 51.4785 121.542 53.3349C119.698 55.1914 118.663 57.7094 118.663 60.3348C118.663 62.9603 119.698 65.4782 121.542 67.3347C123.386 69.1912 125.886 70.2341 128.494 70.2341Z" fill="white"/>
</svg>
